<?xml version="1.0" encoding="UTF-8" standalone="no"?>
<svg
   viewBox="0 0 234 62.432207"
   id="svg26"
   version="1.1"
   x="1.5"
   height="41.621471"
   width="156"
   sodipodi:docname="logo-full-dark.svg"
   inkscape:export-filename="/Users/boris/Desktop/OneDrive/TriLizard Profile.png"
   inkscape:export-xdpi="2306.5017"
   inkscape:export-ydpi="2306.5017"
   inkscape:version="1.1.1 (3bf5ae0d25, 2021-09-20)"
   xmlns:inkscape="http://www.inkscape.org/namespaces/inkscape"
   xmlns:sodipodi="http://sodipodi.sourceforge.net/DTD/sodipodi-0.dtd"
   xmlns="http://www.w3.org/2000/svg"
   xmlns:svg="http://www.w3.org/2000/svg"
   xmlns:rdf="http://www.w3.org/1999/02/22-rdf-syntax-ns#"
   xmlns:cc="http://creativecommons.org/ns#"
   xmlns:dc="http://purl.org/dc/elements/1.1/">
  <sodipodi:namedview
     pagecolor="#ffffff"
     bordercolor="#666666"
     borderopacity="1"
     objecttolerance="10"
     gridtolerance="10"
     guidetolerance="10"
     inkscape:pageopacity="0"
     inkscape:pageshadow="2"
     inkscape:window-width="1777"
     inkscape:window-height="975"
     id="namedview9535"
     showgrid="false"
     inkscape:zoom="2.8350752"
     inkscape:cx="71.426677"
     inkscape:cy="27.336136"
     inkscape:window-x="0"
     inkscape:window-y="0"
     inkscape:window-maximized="0"
     inkscape:current-layer="svg26"
     inkscape:pagecheckerboard="0"
     height="41.62147px"
     width="199px" />
  <metadata
     id="metadata32">
    <rdf:RDF>
      <cc:Work
         rdf:about="">
        <dc:format>image/svg+xml</dc:format>
        <dc:type
           rdf:resource="http://purl.org/dc/dcmitype/StillImage" />
      </cc:Work>
    </rdf:RDF>
  </metadata>
  <defs
     id="defs30">
    <linearGradient
       id="linearGradient4535"
       inkscape:swatch="solid">
      <stop
         id="stop4533"
         offset="0"
         style="stop-color:#fffffd;stop-opacity:1;" />
    </linearGradient>
  </defs>
  <desc
     id="desc2">TriLizard character. Created and drewn by boraini.</desc>
  <g
     id="g24"
     y="1.5"
     x="1.5"
     transform="matrix(1.1375625,0,0,1.1428534,2.7770393,15.883824)"
     style="stroke-width:2.63111px">
    <g
       id="g22"
       onclick="alert('Tiyze n\'aptin?!', 'TriLizard diyor ki:');"
       name="head"
       style="stroke-width:2.63111px">
      <rect
         style="fill:#ff8844;stroke:#ff8800;stroke-width:1.75407"
         id="rect4"
         ry="3"
         rx="3"
         height="15"
         width="10"
         y="0"
         x="10" />
      <rect
         style="fill:#ff8844;stroke:#ff8800;stroke-width:1.75407"
         id="rect6"
         ry="3"
         rx="3"
         height="15"
         width="10"
         y="0"
         x="30" />
      <rect
         style="fill:#ffffff;stroke:none;stroke-width:2.63111px"
         id="rect8"
         ry="2"
         rx="2"
         height="6"
         width="6"
         y="3"
         x="12" />
      <rect
         style="fill:#ffffff;stroke:none;stroke-width:2.63111px"
         id="rect10"
         ry="2"
         rx="2"
         height="6"
         width="6"
         y="3"
         x="32" />
      <rect
         style="fill:#4444ff;stroke:none;stroke-width:2.63111px"
         id="rect12"
         ry="2"
         rx="2"
         height="4"
         width="4"
         y="4"
         x="13" />
      <rect
         style="fill:#4444ff;stroke:none;stroke-width:2.63111px"
         id="rect14"
         ry="2"
         rx="2"
         height="4"
         width="4"
         y="4"
         x="33" />
      <rect
         style="fill:#4444ff;stroke:#2222ff;stroke-width:1.75407"
         id="rect16"
         ry="3"
         rx="3"
         height="15"
         width="50"
         y="10"
         x="0" />
      <rect
         style="fill:#ffffff;stroke:none;stroke-width:2.63111px"
         id="rect18"
         ry="3"
         rx="3"
         height="9"
         width="44"
         y="13"
         x="3" />
      <path
         style="fill:none;stroke:#000000;stroke-width:1.75407"
         id="path20"
         d="m 3,22 5.5,-9 5.5,9 5.5,-9 5.5,9 5.5,-9 5.5,9 5.5,-9 5.5,9"
         inkscape:connector-curvature="0" />
    </g>
  </g>
  <g
     aria-label="Boraini"
     id="text4928"
     style="font-size:60px;line-height:1.25;stroke-width:1.5;fill:#ffffff;fill-opacity:1"
     transform="matrix(0.82023997,0,0,0.73441933,5.9716259,39.154571)">
    <path
       d="m 83.255974,11.37536 v -42.65625 h 13.945312 c 3.769144,0 6.732434,1.224056 8.379474,2.871093 1.64704,1.647037 3.51563,4.746094 3.51563,8.496094 0,1.992187 -0.63254,3.495222 -1.30241,5.104327 -0.60372,1.126623 -1.88215,3.168029 -2.97551,3.743329 2.30469,0.644531 4.1211,1.8750002 5.44922,3.6914065 1.34766,1.796875 2.02149,3.9453125 2.02149,6.44531254 0,3.82812496 -1.24024,6.83593746 -3.72071,9.02343746 C 106.088,10.28161 102.58215,11.37536 98.050896,11.37536 Z m 5.625,-19.9511723 V 6.7757502 h 9.287109 c 2.617187,0 4.677727,-0.6738281 6.181637,-2.0214844 1.52344,-1.3671875 2.28516,-3.2421875 2.28516,-5.62500001 0,-5.13671869 -2.79297,-7.70507809 -8.378906,-7.70507809 z m 0,-4.5117187 h 8.496094 c 2.460935,0 2.373615,-0.615234 3.838462,-1.845703 1.48437,-1.230469 2.22656,-2.900391 2.22656,-5.009766 0,-2.34375 -0.56681,-4.080686 -1.58783,-5.163792 -1.02102,-1.083106 -2.71977,-1.545192 -4.652974,-1.545192 h -8.320312 z"
       style="font-family:Roboto;-inkscape-font-specification:Roboto;fill:#ffffff;fill-opacity:1"
       id="path4448"
       sodipodi:nodetypes="ccszscccssscccscssccscszscc" />
    <path
       d="m 118.32433,-4.7672186 q 0,-4.6582031 1.81641,-8.3789064 1.8457,-3.720703 5.09766,-5.742187 3.28125,-2.021485 7.4707,-2.021485 6.47461,0 10.45898,4.482422 4.01368,4.482422 4.01368,11.9238283 v 0.3808594 q 0,4.62890621 -1.78711,8.3203125 -1.75782,3.6621093 -5.06836,5.7128906 -3.28125,2.0507812 -7.5586,2.0507812 -6.44531,0 -10.45898,-4.4824218 -3.98438,-4.4824219 -3.98438,-11.8652344 z m 5.44922,0.6445313 q 0,5.2734375 2.43164,8.4667968 2.46094,3.1933594 6.5625,3.1933594 4.13086,0 6.5625,-3.2226562 2.43164,-3.2519532 2.43164,-9.0820313 0,-5.2148437 -2.49023,-8.4375004 -2.46094,-3.251953 -6.5625,-3.251953 -4.01367,0 -6.47461,3.19336 -2.46094,3.193359 -2.46094,9.1406247 z"
       style="font-family:Roboto;-inkscape-font-specification:Roboto;fill:#ffffff;fill-opacity:1"
       id="path4450" />
    <path
       d="m 169.3009,-15.460578 q -1.23047,-0.205078 -2.66602,-0.205078 -5.33203,0 -7.23633,4.541016 v 22.5 h -5.41992 v -31.699219 h 5.27344 l 0.0879,3.662109 q 2.66601,-4.248047 7.55859,-4.248047 1.58203,0 2.40235,0.410157 z"
       style="font-family:Roboto;-inkscape-font-specification:Roboto;fill:#ffffff;fill-opacity:1"
       id="path4452" />
    <path
       d="m 192.6798,11.37536 q -0.46875,-0.9375 -0.76172,-3.3398442 -3.77929,3.9257812 -9.02343,3.9257812 -4.6875,0 -7.70508,-2.6367187 -2.98828,-2.6660156 -2.98828,-6.7382813 0,-4.9511718 3.75,-7.6757812 3.77929,-2.7539063 10.60547,-2.7539063 h 5.27343 v -2.4902345 q 0,-2.841797 -1.69922,-4.511719 -1.69921,-1.699218 -5.00976,-1.699218 -2.90039,0 -4.86328,1.464843 -1.96289,1.464844 -1.96289,3.544922 h -5.44922 q 0,-2.373047 1.66992,-4.570312 1.69922,-2.226563 4.57031,-3.515625 2.90039,-1.289063 6.35742,-1.289063 5.47852,0 8.58399,2.753907 3.10547,2.724609 3.22265,7.529296 V 3.9632502 q 0,4.3652343 1.11329,6.9433598 v 0.46875 z m -8.99414,-4.1308598 q 2.54883,0 4.83399,-1.3183594 2.28515,-1.3183594 3.31054,-3.4277344 v -6.5039062 h -4.24804 q -9.96094,0 -9.96094,5.8300781 0,2.5488281 1.69922,3.984375 1.69922,1.4355469 4.36523,1.4355469 z"
       style="font-family:Roboto;-inkscape-font-specification:Roboto;fill:#ffffff;fill-opacity:1"
       id="path4454" />
    <path
       d="m 211.63488,11.37536 h -5.41992 v -31.699219 h 5.41992 z m -5.85937,-40.107422 q 0,-1.31836 0.79101,-2.226563 0.82031,-0.908203 2.40234,-0.908203 1.58204,0 2.40235,0.908203 0.82031,0.908203 0.82031,2.226563 0,1.318359 -0.82031,2.197265 -0.82031,0.878907 -2.40235,0.878907 -1.58203,0 -2.40234,-0.878907 -0.79101,-0.878906 -0.79101,-2.197265 z"
       style="font-family:Roboto;-inkscape-font-specification:Roboto;fill:#ffffff;fill-opacity:1"
       id="path4456" />
    <path
       d="m 225.43371,-20.323859 0.17578,3.984375 q 3.63281,-4.570313 9.49219,-4.570313 10.04883,0 10.13672,11.3378909 V 11.37536 h -5.41993 V -9.601203 q -0.0293,-3.427734 -1.58203,-5.068359 -1.52343,-1.640625 -4.77539,-1.640625 -2.63672,0 -4.6289,1.40625 -1.99219,1.40625 -3.10547,3.691406 V 11.37536 h -5.41992 v -31.699219 z"
       style="font-family:Roboto;-inkscape-font-specification:Roboto;fill:#ffffff;fill-opacity:1"
       id="path4458" />
    <path
       d="m 259.3009,11.37536 h -5.41993 v -31.699219 h 5.41993 z m -5.85938,-40.107422 q 0,-1.31836 0.79102,-2.226563 0.82031,-0.908203 2.40234,-0.908203 1.58203,0 2.40234,0.908203 0.82032,0.908203 0.82032,2.226563 0,1.318359 -0.82032,2.197265 -0.82031,0.878907 -2.40234,0.878907 -1.58203,0 -2.40234,-0.878907 -0.79102,-0.878906 -0.79102,-2.197265 z"
       style="font-family:Roboto;-inkscape-font-specification:Roboto;fill:#ffffff;fill-opacity:1"
       id="path4460" />
  </g>
</svg>
