<svg width="2145" height="1016" xmlns="http://www.w3.org/2000/svg" xmlns:xlink="http://www.w3.org/1999/xlink" xml:space="preserve" overflow="hidden"><defs><clipPath id="clip0"><rect x="1295" y="426" width="2145" height="1016"/></clipPath><linearGradient x1="1667.47" y1="795.196" x2="1843.73" y2="973.604" gradientUnits="userSpaceOnUse" spreadMethod="reflect" id="fill1"><stop offset="0" stop-color="#7030A0"/><stop offset="0.5" stop-color="#8A3CC4"/><stop offset="1" stop-color="#A568D2"/></linearGradient><linearGradient x1="1422.5" y1="1088" x2="1422.5" y2="1343" gradientUnits="userSpaceOnUse" spreadMethod="reflect" id="fill2"><stop offset="0" stop-color="#7030A0"/><stop offset="0.5" stop-color="#8A3CC4"/><stop offset="1" stop-color="#A568D2"/></linearGradient><linearGradient x1="2529.14" y1="799.544" x2="2386.66" y2="952.663" gradientUnits="userSpaceOnUse" spreadMethod="reflect" id="fill3"><stop offset="0" stop-color="#7030A0"/><stop offset="0.5" stop-color="#8A3CC4"/><stop offset="1" stop-color="#A568D2"/></linearGradient><linearGradient x1="2977.26" y1="1149.91" x2="2965.59" y2="1246.58" gradientUnits="userSpaceOnUse" spreadMethod="reflect" id="fill4"><stop offset="0" stop-color="#7030A0"/><stop offset="0.5" stop-color="#8A3CC4"/><stop offset="1" stop-color="#A568D2"/></linearGradient><linearGradient x1="3263.04" y1="1263.77" x2="3230.41" y2="1317.41" gradientUnits="userSpaceOnUse" spreadMethod="reflect" id="fill5"><stop offset="0" stop-color="#7030A0"/><stop offset="0.5" stop-color="#8A3CC4"/><stop offset="1" stop-color="#A568D2"/></linearGradient><linearGradient x1="2087.5" y1="426" x2="2087.5" y2="681" gradientUnits="userSpaceOnUse" spreadMethod="reflect" id="fill6"><stop offset="0" stop-color="#7030A0"/><stop offset="0.5" stop-color="#8A3CC4"/><stop offset="1" stop-color="#A568D2"/></linearGradient><linearGradient x1="2789" y1="1081" x2="2789" y2="1288" gradientUnits="userSpaceOnUse" spreadMethod="reflect" id="fill7"><stop offset="0" stop-color="#7030A0"/><stop offset="0.5" stop-color="#8A3CC4"/><stop offset="1" stop-color="#A568D2"/></linearGradient><linearGradient x1="3124" y1="1167" x2="3124" y2="1264" gradientUnits="userSpaceOnUse" spreadMethod="reflect" id="fill8"><stop offset="0" stop-color="#7030A0"/><stop offset="0.5" stop-color="#8A3CC4"/><stop offset="1" stop-color="#A568D2"/></linearGradient><linearGradient x1="3377.5" y1="1339" x2="3377.5" y2="1405" gradientUnits="userSpaceOnUse" spreadMethod="reflect" id="fill9"><stop offset="0" stop-color="#7030A0"/><stop offset="0.5" stop-color="#8A3CC4"/><stop offset="1" stop-color="#A568D2"/></linearGradient></defs><g clip-path="url(#clip0)" transform="translate(-1295 -426)"><path d="M1326.3 1132.27 2008.63 458.119 2184.9 636.528 1502.57 1310.68Z" fill="url(#fill1)" fill-rule="evenodd"/><path d="M1295 1215.5C1295 1145.08 1352.08 1088 1422.5 1088 1492.92 1088 1550 1145.08 1550 1215.5 1550 1285.92 1492.92 1343 1422.5 1343 1352.08 1343 1295 1285.92 1295 1215.5Z" fill="url(#fill2)" fill-rule="evenodd"/><path d="M2178.05 472.823 2880.24 1126.26 2737.75 1279.38 2035.56 625.942Z" fill="url(#fill3)" fill-rule="evenodd"/><path d="M2826.21 1131.67 3128.32 1168.15 3116.64 1264.82 2814.54 1228.34Z" fill="url(#fill4)" fill-rule="evenodd"/><path d="M3133.05 1184.7 3393.02 1342.85 3360.4 1396.48 3100.42 1238.34Z" fill="url(#fill5)" fill-rule="evenodd"/><path d="M1960 553.5C1960 483.084 2017.08 426 2087.5 426 2157.92 426 2215 483.084 2215 553.5 2215 623.916 2157.92 681 2087.5 681 2017.08 681 1960 623.916 1960 553.5Z" fill="url(#fill6)" fill-rule="evenodd"/><path d="M2685 1184.5C2685 1127.34 2731.56 1081 2789 1081 2846.44 1081 2893 1127.34 2893 1184.5 2893 1241.66 2846.44 1288 2789 1288 2731.56 1288 2685 1241.66 2685 1184.5Z" fill="url(#fill7)" fill-rule="evenodd"/><path d="M3077 1215.5C3077 1188.71 3098.04 1167 3124 1167 3149.96 1167 3171 1188.71 3171 1215.5 3171 1242.29 3149.96 1264 3124 1264 3098.04 1264 3077 1242.29 3077 1215.5Z" fill="url(#fill8)" fill-rule="evenodd"/><path d="M3344 1372C3344 1353.77 3359 1339 3377.5 1339 3396 1339 3411 1353.77 3411 1372 3411 1390.23 3396 1405 3377.5 1405 3359 1405 3344 1390.23 3344 1372Z" fill="url(#fill9)" fill-rule="evenodd"/><path d="M4.8505-4.87219 670.012 657.328 660.311 667.072-4.8505 4.87219ZM-14.5515 14.6166-14.6166-14.5515 14.5515-14.6166 14.6166 14.5515ZM679.713 647.583 679.778 676.751 650.61 676.817 650.545 647.648Z" fill="#FFFFFF" transform="matrix(1 0 0 -1 1422 1215.2)"/><text fill="#FFFFFF" font-family="Arial,Arial_MSFontService,sans-serif" font-weight="400" font-size="83" transform="matrix(0.715829 -0.698276 0.698276 0.715829 1809.07 954)">3</text><path d="M1527.98 930.26 1700.36 1111.39 1690.4 1120.87 1518.02 939.74ZM1508.06 949.219 1508.78 920.06 1537.94 920.781 1537.22 949.94ZM1710.33 1101.91 1709.6 1131.07 1680.44 1130.35 1681.17 1101.19Z" fill="#FFFFFF"/><text fill="#FFFFFF" font-family="Arial,Arial_MSFontService,sans-serif" font-weight="400" font-size="83" transform="matrix(0.722124 0.691763 -0.691763 0.722124 1492.3 1032)">1</text><path d="M4.8505-4.87219 670.012 657.328 660.311 667.072-4.8505 4.87219ZM-14.5515 14.6166-14.6166-14.5515 14.5515-14.6166 14.6166 14.5515ZM679.713 647.583 679.778 676.751 650.61 676.817 650.545 647.648Z" fill="#FFFFFF" transform="matrix(0.0590041 0.998258 0.998258 -0.0590041 2089.17 551.497)"/><text fill="#FFFFFF" font-family="Arial,Arial_MSFontService,sans-serif" font-weight="400" font-size="83" transform="matrix(0.739296 0.67338 -0.67338 0.739296 2372.96 922)">3</text><path d="M4.94602-4.7752 147.805 143.194 137.913 152.745-4.94602 4.7752ZM-14.838 14.3256-14.3256-14.838 14.838-14.3256 14.3256 14.838ZM157.697 133.644 157.185 162.808 128.021 162.295 128.534 133.131Z" fill="#FFFFFF" transform="matrix(-1 0 0 1 2357.86 646)"/><text fill="#FFFFFF" font-family="Arial,Arial_MSFontService,sans-serif" font-weight="400" font-size="83" transform="matrix(0.678615 -0.734494 0.734494 0.678615 2271.1 705)">0,8</text><path d="M2788.88 1170.18 3125.07 1213.55 3123.31 1227.19 2787.12 1183.82ZM2785.36 1197.46 2767.54 1174.36 2790.64 1156.54 2808.46 1179.64ZM3126.83 1199.92 3144.65 1223.01 3121.55 1240.83 3103.73 1217.73Z" fill="#FFFFFF"/><text fill="#FFFFFF" font-family="Arial,Arial_MSFontService,sans-serif" font-weight="400" font-size="55" transform="matrix(0.99854 0.0540129 -0.0540129 0.99854 3027.17 1256)">0.<tspan font-size="55" x="45.8076" y="-0.474892">7</tspan></text><path d="M6.82121-0.858349 18.4686 91.7026 4.82623 93.4193-6.82121 0.858349ZM-20.4636 2.57505-2.57505-20.4636 20.4636-2.57505 2.57505 20.4636ZM32.1111 89.9859 14.2225 113.025-8.81618 95.136 9.07239 72.0973Z" fill="#FFFFFF" transform="matrix(-1 0 0 1 2977.65 1154)"/><text fill="#FFFFFF" font-family="Arial,Arial_MSFontService,sans-serif" font-weight="400" font-size="55" transform="matrix(0.99854 0.0540129 -0.0540129 0.99854 2880.84 1239)">0.<tspan font-size="55" x="45.8618" y="0.523635">3</tspan></text><path d="M3136.52 1214.09 3380.43 1359.27 3373.4 1371.09 3129.48 1225.91ZM3122.45 1237.72 3115.28 1209.45 3143.55 1202.28 3150.72 1230.55ZM3387.46 1347.46 3394.64 1375.73 3366.37 1382.9 3359.19 1354.63Z" fill="#FFFFFF"/><text fill="#FFFFFF" font-family="Arial,Arial_MSFontService,sans-serif" font-weight="400" font-size="37" transform="matrix(0.887542 0.460728 -0.460728 0.887542 3290.64 1355)">0.<tspan font-size="37" x="30.8205" y="-0.225192">7</tspan></text><path d="M5.89476-3.53799 59.3704 85.5595 47.5808 92.6355-5.89476 3.53799ZM-17.6843 10.614-10.614-17.6843 17.6843-10.614 10.614 17.6843ZM71.1599 78.4835 64.0896 106.782 35.7913 99.7114 42.8616 71.4132Z" fill="#FFFFFF" transform="matrix(-1 0 0 1 3275.48 1235)"/><text fill="#FFFFFF" font-family="Arial,Arial_MSFontService,sans-serif" font-weight="400" font-size="37" transform="matrix(0.887542 0.460728 -0.460728 0.887542 3190 1250)">0.2</text></g></svg>