<svg width="2968" height="400" xmlns="http://www.w3.org/2000/svg" xmlns:xlink="http://www.w3.org/1999/xlink" xml:space="preserve" overflow="hidden"><defs><clipPath id="clip0"><rect x="699" y="260" width="2968" height="400"/></clipPath></defs><g clip-path="url(#clip0)" transform="translate(-699 -260)"><path d="M3058.5 460 3159.48 460" stroke="#659C3F" stroke-width="4.58333" stroke-miterlimit="8" fill="none" fill-rule="evenodd"/><path d="M2452.5 460 2553.48 460" stroke="#659C3F" stroke-width="4.58333" stroke-miterlimit="8" fill="none" fill-rule="evenodd"/><path d="M1847.5 460 1948.48 460" stroke="#659C3F" stroke-width="4.58333" stroke-miterlimit="8" fill="none" fill-rule="evenodd"/><path d="M1241.5 460 1342.48 460" stroke="#588937" stroke-width="4.58333" stroke-miterlimit="8" fill="none" fill-rule="evenodd"/><rect x="736.5" y="383.5" width="505" height="154" stroke="#FFFFFF" stroke-width="4.58333" stroke-miterlimit="8" fill="#70AD47"/><text fill="#FFFFFF" font-family="Calibri,Calibri_MSFontService,sans-serif" font-weight="400" font-size="78" transform="matrix(1 0 0 1 747.014 482)">Shoulder (root)</text><rect x="1342.5" y="383.5" width="505" height="154" stroke="#FFFFFF" stroke-width="4.58333" stroke-miterlimit="8" fill="#70AD47"/><text fill="#FFFFFF" font-family="Calibri,Calibri_MSFontService,sans-serif" font-weight="400" font-size="78" transform="matrix(1 0 0 1 1419.21 482)">Upper Arm</text><rect x="1948.5" y="383.5" width="504" height="154" stroke="#FFFFFF" stroke-width="4.58333" stroke-miterlimit="8" fill="#70AD47"/><text fill="#FFFFFF" font-family="Calibri,Calibri_MSFontService,sans-serif" font-weight="400" font-size="78" transform="matrix(1 0 0 1 2026.72 482)">Lower Arm</text><rect x="2553.5" y="383.5" width="505" height="154" stroke="#FFFFFF" stroke-width="4.58333" stroke-miterlimit="8" fill="#70AD47"/><text fill="#FFFFFF" font-family="Calibri,Calibri_MSFontService,sans-serif" font-weight="400" font-size="78" transform="matrix(1 0 0 1 2727.85 482)">Palm</text><rect x="3159.5" y="383.5" width="505" height="154" stroke="#FFFFFF" stroke-width="4.58333" stroke-miterlimit="8" fill="#70AD47"/><text fill="#FFFFFF" font-family="Calibri,Calibri_MSFontService,sans-serif" font-weight="400" font-size="78" transform="matrix(1 0 0 1 3221.77 482)">Finger (leaf)</text></g></svg>