<svg width="1127" height="550" xmlns="http://www.w3.org/2000/svg" xmlns:xlink="http://www.w3.org/1999/xlink" xml:space="preserve" overflow="hidden"><defs><clipPath id="clip0"><rect x="728" y="260" width="1127" height="550"/></clipPath></defs><g clip-path="url(#clip0)" transform="translate(-728 -260)"><path d="M894 655.5 909.983 655.5 909.983 689.863 925.965 689.863" stroke="#588937" stroke-width="4.58333" stroke-miterlimit="8" fill="none" fill-rule="evenodd"/><path d="M1086 621.5 1101.98 621.5 1101.98 690.226 1117.97 690.226" stroke="#659C3F" stroke-width="4.58333" stroke-miterlimit="8" fill="none" fill-rule="evenodd"/><path d="M1086 621 1117.97 621" stroke="#659C3F" stroke-width="4.58333" stroke-miterlimit="8" fill="none" fill-rule="evenodd"/><path d="M1277 552.5 1292.98 552.5 1292.98 621.226 1308.97 621.226" stroke="#659C3F" stroke-width="4.58333" stroke-miterlimit="8" fill="none" fill-rule="evenodd"/><path d="M1277 552 1308.97 552" stroke="#659C3F" stroke-width="4.58333" stroke-miterlimit="8" fill="none" fill-rule="evenodd"/><path d="M1469 483.5 1484.98 483.5 1484.98 552.226 1500.97 552.226" stroke="#659C3F" stroke-width="4.58333" stroke-miterlimit="8" fill="none" fill-rule="evenodd"/><path d="M1469 484 1500.97 484" stroke="#659C3F" stroke-width="4.58333" stroke-miterlimit="8" fill="none" fill-rule="evenodd"/><path d="M1661 414.5 1676.98 414.5 1676.98 448.863 1692.97 448.863" stroke="#659C3F" stroke-width="4.58333" stroke-miterlimit="8" fill="none" fill-rule="evenodd"/><path d="M1661 414.863 1676.98 414.863 1676.98 380.5 1692.97 380.5" stroke="#659C3F" stroke-width="4.58333" stroke-miterlimit="8" fill="none" fill-rule="evenodd"/><path d="M1469 483.226 1484.98 483.226 1484.98 414.5 1500.97 414.5" stroke="#659C3F" stroke-width="4.58333" stroke-miterlimit="8" fill="none" fill-rule="evenodd"/><path d="M1277 552.226 1292.98 552.226 1292.98 483.5 1308.97 483.5" stroke="#659C3F" stroke-width="4.58333" stroke-miterlimit="8" fill="none" fill-rule="evenodd"/><path d="M1086 621.226 1101.98 621.226 1101.98 552.5 1117.97 552.5" stroke="#659C3F" stroke-width="4.58333" stroke-miterlimit="8" fill="none" fill-rule="evenodd"/><path d="M894 655.863 909.983 655.863 909.983 621.5 925.965 621.5" stroke="#588937" stroke-width="4.58333" stroke-miterlimit="8" fill="none" fill-rule="evenodd"/><rect x="733.5" y="631.5" width="160" height="48.0001" stroke="#FFFFFF" stroke-width="4.58333" stroke-miterlimit="8" fill="#70AD47"/><text fill="#FFFFFF" font-family="Calibri,Calibri_MSFontService,sans-serif" font-weight="400" font-size="23" transform="matrix(1 0 0 1 742.261 661)">Shoulder (root)</text><rect x="925.5" y="596.5" width="160" height="49.0002" stroke="#FFFFFF" stroke-width="4.58333" stroke-miterlimit="8" fill="#70AD47"/><text fill="#FFFFFF" font-family="Calibri,Calibri_MSFontService,sans-serif" font-weight="400" font-size="23" transform="matrix(1 0 0 1 953.705 627)">Upper Arm</text><rect x="1117.5" y="527.5" width="160" height="48.9998" stroke="#FFFFFF" stroke-width="4.58333" stroke-miterlimit="8" fill="#70AD47"/><text fill="#FFFFFF" font-family="Calibri,Calibri_MSFontService,sans-serif" font-weight="400" font-size="23" transform="matrix(1 0 0 1 1145.84 558)">Lower Arm</text><rect x="1309.5" y="459.5" width="160" height="47.9998" stroke="#FFFFFF" stroke-width="4.58333" stroke-miterlimit="8" fill="#70AD47"/><text fill="#FFFFFF" font-family="Calibri,Calibri_MSFontService,sans-serif" font-weight="400" font-size="23" transform="matrix(1 0 0 1 1365.57 490)">Palm</text><rect x="1501.5" y="390.5" width="159" height="49.0002" stroke="#FFFFFF" stroke-width="4.58333" stroke-miterlimit="8" fill="#70AD47"/><text fill="#FFFFFF" font-family="Calibri,Calibri_MSFontService,sans-serif" font-weight="400" font-size="23" transform="matrix(1 0 0 1 1551.55 421)">Finger</text><rect x="1692.5" y="356.5" width="160" height="48.0001" stroke="#FFFFFF" stroke-width="4.58333" stroke-miterlimit="8" fill="#92D050"/><text fill="#FFFFFF" font-family="Calibri,Calibri_MSFontService,sans-serif" font-weight="400" font-size="23" transform="matrix(1 0 0 1 1726.5 386)">Rectangle</text><rect x="1692.5" y="424.5" width="160" height="48.9998" stroke="#FFFFFF" stroke-width="4.58333" stroke-miterlimit="8" fill="#92D050"/><text fill="#FFFFFF" font-family="Calibri,Calibri_MSFontService,sans-serif" font-weight="400" font-size="23" transform="matrix(1 0 0 1 1746.44 455)">Circle</text><rect x="1501.5" y="459.5" width="159" height="47.9998" stroke="#FFFFFF" stroke-width="4.58333" stroke-miterlimit="8" fill="#92D050"/><text fill="#FFFFFF" font-family="Calibri,Calibri_MSFontService,sans-serif" font-weight="400" font-size="23" transform="matrix(1 0 0 1 1534.71 490)">Rectangle</text><rect x="1501.5" y="527.5" width="159" height="48.9998" stroke="#FFFFFF" stroke-width="4.58333" stroke-miterlimit="8" fill="#92D050"/><text fill="#FFFFFF" font-family="Calibri,Calibri_MSFontService,sans-serif" font-weight="400" font-size="23" transform="matrix(1 0 0 1 1554.65 558)">Circle</text><rect x="1309.5" y="527.5" width="160" height="48.9998" stroke="#FFFFFF" stroke-width="4.58333" stroke-miterlimit="8" fill="#92D050"/><text fill="#FFFFFF" font-family="Calibri,Calibri_MSFontService,sans-serif" font-weight="400" font-size="23" transform="matrix(1 0 0 1 1342.92 558)">Rectangle</text><rect x="1309.5" y="596.5" width="160" height="49.0002" stroke="#FFFFFF" stroke-width="4.58333" stroke-miterlimit="8" fill="#92D050"/><text fill="#FFFFFF" font-family="Calibri,Calibri_MSFontService,sans-serif" font-weight="400" font-size="23" transform="matrix(1 0 0 1 1362.86 627)">Circle</text><rect x="1117.5" y="596.5" width="160" height="49.0002" stroke="#FFFFFF" stroke-width="4.58333" stroke-miterlimit="8" fill="#92D050"/><text fill="#FFFFFF" font-family="Calibri,Calibri_MSFontService,sans-serif" font-weight="400" font-size="23" transform="matrix(1 0 0 1 1151.12 627)">Rectangle</text><rect x="1117.5" y="665.5" width="160" height="49.0002" stroke="#FFFFFF" stroke-width="4.58333" stroke-miterlimit="8" fill="#92D050"/><text fill="#FFFFFF" font-family="Calibri,Calibri_MSFontService,sans-serif" font-weight="400" font-size="23" transform="matrix(1 0 0 1 1171.06 696)">Circle</text><rect x="925.5" y="665.5" width="160" height="49.0002" stroke="#FFFFFF" stroke-width="4.58333" stroke-miterlimit="8" fill="#92D050"/><text fill="#FFFFFF" font-family="Calibri,Calibri_MSFontService,sans-serif" font-weight="400" font-size="23" transform="matrix(1 0 0 1 979.269 696)">Circle</text></g></svg>